<svg width="465" height="100" viewBox="0 0 465 100">
  <path fill="currentColor" d="M 49.3 77.8 h -9.3 v -5.7 q -4 3.4 -8.4 5.3 q -4.4 1.9 -9.5 1.9 q -9.9 0 -15.7 -7.5 Q 0.6 64.3 0.6 50.9 q 0 -6.9 2 -12.4 q 2 -5.4 5.4 -9.2 q 3.4 -3.7 7.8 -5.7 q 4.5 -2 9.3 -2 q 4.4 0 7.7 0.9 q 3.4 0.9 7.1 2.8 V 1.8 h 9.3 z m -9.3 -13.4 V 33.1 q -3.8 -1.7 -6.7 -2.3 q -3 -0.6 -6.5 -0.6 q -7.8 0 -12.2 5.4 q -4.4 5.4 -4.4 15.2 q 0 9.7 3.4 14.8 q 3.4 5 10.8 5 q 4 0 8 -1.7 q 4.1 -1.8 7.6 -4.5 z m 65.2 -13.8 q 0 13.3 -6.9 21 q -6.9 7.7 -18.6 7.7 q -11.7 0 -18.7 -7.7 q -6.9 -7.7 -6.9 -21 t 6.9 -21 q 6.9 -7.8 18.7 -7.8 q 11.6 0 18.6 7.8 q 6.9 7.7 6.9 21 z m -9.6 0 q 0 -10.6 -4.2 -15.7 q -4.2 -5.2 -11.7 -5.2 q -7.6 0 -11.8 5.2 q -4.2 5.1 -4.2 15.7 q 0 10.3 4.2 15.6 q 4.2 5.3 11.7 5.3 q 7.4 0 11.6 -5.2 q 4.3 -5.3 4.3 -15.6 z m 55.4 23.8 q -4.7 2.2 -8.9 3.4 q -4.2 1.2 -8.9 1.2 q -6 0 -11 -1.7 q -5 -1.8 -8.6 -5.3 q -3.6 -3.5 -5.6 -8.9 q -2 -5.4 -2 -12.5 q 0 -13.4 7.4 -21 q 7.5 -7.6 19.7 -7.6 q 4.8 0 9.3 1.3 q 4.6 1.3 8.4 3.2 V 36.7 h -0.5 q -4.3 -3.3 -8.8 -5 q -4.5 -1.8 -8.8 -1.8 q -7.9 0 -12.5 5.3 q -4.6 5.2 -4.6 15.4 q 0 9.9 4.5 15.2 q 4.5 5.3 12.6 5.3 q 2.8 0 5.7 -0.7 q 2.9 -0.7 5.2 -1.9 q 2 -1 3.8 -2.1 q 1.8 -1.2 2.8 -2 h 0.5 z m 52.7 3.4 h -12.3 L 169.2 53.9 l -6 5.7 v 18.2 h -9.3 V 1.8 h 9.3 V 50.6 l 26.9 -27.3 h 11.7 l -25.7 25.2 Z m 10.3 -63.7 h -10.5 V 4.6 h 10.5 z m -0.6 63.7 h -9.3 V 23.3 h 9.3 z m 37.7 -0.5 q -2.6 0.7 -5.7 1.1 q -3.1 0.4 -5.5 0.4 q -8.5 0 -12.9 -4.5 q -4.4 -4.5 -4.4 -14.4 V 31 h -6.3 v -7.7 h 6.3 V 7.6 h 9.3 V 23.3 h 19.2 v 7.7 H 231.8 v 24.9 q 0 4.3 0.2 6.7 q 0.2 2.4 1.4 4.5 q 1.1 2 3 2.9 q 1.9 0.9 5.8 0.9 q 2.3 0 4.8 -0.6 q 2.5 -0.7 3.6 -1.1 h 0.5 z m 31.1 -26.9 h -30.9 v -8.8 h 30.9 z m 48.2 24 q -4.7 2.2 -8.9 3.4 q -4.2 1.2 -8.9 1.2 q -6 0 -11 -1.7 q -5 -1.8 -8.6 -5.3 q -3.6 -3.5 -5.6 -8.9 q -2 -5.4 -2 -12.5 q 0 -13.4 7.4 -21 q 7.5 -7.6 19.7 -7.6 q 4.8 0 9.3 1.3 q 4.6 1.3 8.4 3.2 V 36.7 h -0.5 q -4.3 -3.3 -8.8 -5 q -4.5 -1.8 -8.8 -1.8 q -7.9 0 -12.5 5.3 q -4.6 5.2 -4.6 15.4 q 0 9.9 4.5 15.2 q 4.5 5.3 12.6 5.3 q 2.8 0 5.7 -0.7 t 5.2 -1.9 q 2 -1 3.8 -2.1 q 1.8 -1.2 2.8 -2 h 0.5 z M 379.9 50.6 q 0 13.3 -6.9 21 q -6.9 7.7 -18.6 7.7 q -11.7 0 -18.7 -7.7 q -6.9 -7.7 -6.9 -21 t 6.9 -21 q 6.9 -7.8 18.7 -7.8 q 11.6 0 18.6 7.8 q 6.9 7.7 6.9 21 z m -9.6 0 q 0 -10.6 -4.2 -15.7 q -4.2 -5.2 -11.7 -5.2 q -7.6 0 -11.8 5.2 q -4.2 5.1 -4.2 15.7 q 0 10.3 4.2 15.6 q 4.2 5.3 11.7 5.3 q 7.4 0 11.6 -5.2 q 4.3 -5.3 4.3 -15.6 z m 49 -17.3 h -0.5 q -2.1 -0.5 -4.1 -0.7 q -1.9 -0.2 -4.6 -0.2 q -4.3 0 -8.3 1.9 q -4 1.9 -7.7 4.8 v 38.7 h -9.3 V 23.3 h 9.3 v 8.1 q 5.5 -4.4 9.8 -6.2 q 4.3 -1.9 8.7 -1.9 q 2.4 0 3.5 0.1 q 1.1 0.1 3.3 0.4 z M 465 51.5 h -40.8 q 0 5 1.5 8.8 q 1.5 3.7 4.2 6.1 q 2.6 2.3 6.1 3.5 q 3.6 1.2 7.8 1.2 q 5.6 0 11.3 -2.2 q 5.7 -2.2 8.2 -4.4 h 0.5 v 10 q -4.7 2 -9.6 3.3 q -4.9 1.3 -10.3 1.3 q -13.8 0 -21.5 -7.3 q -7.7 -7.4 -7.7 -20.9 q 0 -13.4 7.4 -21.2 q 7.4 -7.9 19.5 -7.9 q 11.2 0 17.2 6.4 q 6.1 6.4 6.1 18.3 z m -9.1 -7 q 0 -7.2 -3.7 -11.2 q -3.6 -4 -11 -4 q -7.5 0 -11.9 4.3 q -4.4 4.3 -5 10.8 z" />
</svg>